<svg width="146" height="146" viewBox="0 0 146 146" fill="none" xmlns="http://www.w3.org/2000/svg">
<g filter="url(#filter0_d_118_93)">
<circle cx="72.9323" cy="62.9323" r="22.9323" fill="white"/>
</g>
<path d="M82.1056 63.4495C82.1056 58.0964 78 53.7593 72.9327 53.7593C67.8654 53.7593 63.7598 58.0964 63.7598 63.4495C63.7598 68.2946 67.0887 72.3191 71.4902 73.0224V66.2627H69.16V63.4495H71.4902V61.3395C71.4902 58.917 72.8587 57.5494 74.93 57.5494C75.9657 57.5494 77.0013 57.7448 77.0013 57.7448V60.1282H75.8547C74.7081 60.1282 74.3382 60.8706 74.3382 61.6521V63.4495H76.8904L76.4835 66.2627H74.3382V73.0224C78.7398 72.3191 82.1056 68.2946 82.1056 63.4495Z" fill="#222222"/>
<defs>
<filter id="filter0_d_118_93" x="0" y="0" width="145.865" height="145.865" filterUnits="userSpaceOnUse" color-interpolation-filters="sRGB">
<feFlood flood-opacity="0" result="BackgroundImageFix"/>
<feColorMatrix in="SourceAlpha" type="matrix" values="0 0 0 0 0 0 0 0 0 0 0 0 0 0 0 0 0 0 127 0" result="hardAlpha"/>
<feOffset dy="10"/>
<feGaussianBlur stdDeviation="25"/>
<feColorMatrix type="matrix" values="0 0 0 0 0 0 0 0 0 0 0 0 0 0 0 0 0 0 0.09 0"/>
<feBlend mode="normal" in2="BackgroundImageFix" result="effect1_dropShadow_118_93"/>
<feBlend mode="normal" in="SourceGraphic" in2="effect1_dropShadow_118_93" result="shape"/>
</filter>
</defs>
</svg>
